<?xml version="1.0" encoding="utf-8"?>
<!-- Generator: Adobe Illustrator 27.8.1, SVG Export Plug-In . SVG Version: 6.00 Build 0)  -->
<svg version="1.1" id="Capa_1" xmlns="http://www.w3.org/2000/svg" xmlns:xlink="http://www.w3.org/1999/xlink" x="0px" y="0px"
	 viewBox="0 0 518.43 119.66" style="enable-background:new 0 0 518.43 119.66;" xml:space="preserve">
<style type="text/css">
	.st0{fill:#CCF381;}
	.st1{fill:#FFFFFF;}
	.st2{fill:none;stroke:#CCF381;stroke-width:2.4198;stroke-miterlimit:10;}
</style>
<g>
	<g>
		<g>
			<path class="st0" d="M86.37,82.12h-0.89c-1.7,4.02-4.05,7.3-7.07,9.82c-3.01,2.52-7.15,3.79-12.41,3.79
				c-3.65,0-6.98-0.68-9.99-2.04c-3.01-1.36-5.6-3.44-7.77-6.24c-2.16-2.8-3.86-6.36-5.09-10.69c-1.23-4.33-1.85-9.46-1.85-15.4
				c0-5.94,0.62-11.07,1.85-15.4c1.23-4.33,2.93-7.89,5.09-10.69c2.16-2.8,4.75-4.88,7.77-6.24c3.01-1.36,6.34-2.04,9.99-2.04
				c2.63,0,4.96,0.34,7,1.03c2.04,0.68,3.84,1.63,5.41,2.82c1.57,1.2,2.93,2.63,4.07,4.3c1.15,1.67,2.14,3.49,2.99,5.46h0.89V0
				h18.84v94.2H86.37V82.12z M74.15,80.96c3.31,0,6.17-0.8,8.59-2.4c2.42-1.6,3.63-4.13,3.63-7.59V51.74c0-3.46-1.21-5.98-3.63-7.59
				c-2.42-1.6-5.28-2.4-8.59-2.4c-4.25,0-7.51,1.29-9.8,3.86c-2.29,2.57-3.44,6.13-3.44,10.69v10.12c0,4.55,1.15,8.12,3.44,10.69
				C66.64,79.67,69.91,80.96,74.15,80.96z"/>
			<path class="st0" d="M147.1,95.73c-11.03,0-19.39-3.05-25.08-9.17c-5.69-6.11-8.53-14.43-8.53-24.95
				c0-5.35,0.74-10.16,2.23-14.45c1.48-4.28,3.61-7.93,6.36-10.95c2.76-3.01,6.11-5.3,10.06-6.87c3.95-1.57,8.38-2.35,13.3-2.35
				c4.92,0,9.33,0.79,13.24,2.35c3.9,1.57,7.21,3.8,9.93,6.68c2.71,2.89,4.82,6.39,6.3,10.5c1.48,4.12,2.23,8.72,2.23,13.81v5.6
				h-44.94v1.15c0,4.25,1.31,7.66,3.95,10.25c2.63,2.59,6.49,3.88,11.58,3.88c3.9,0,7.26-0.74,10.06-2.23
				c2.8-1.48,5.22-3.46,7.26-5.92l10.18,11.07c-2.55,3.14-6.11,5.86-10.69,8.15C159.96,94.58,154.15,95.73,147.1,95.73z
				 M145.58,40.48c-4.07,0-7.32,1.25-9.74,3.75c-2.42,2.5-3.63,5.88-3.63,10.12v1.02h26.48v-1.02c0-4.33-1.17-7.72-3.5-10.18
				C152.85,41.71,149.65,40.48,145.58,40.48z"/>
			<path class="st0" d="M201.14,94.2l-23.55-65.68h19.86l8.53,28.13l6.24,21.89h1.02l6.24-21.89L228,28.51h19.09L223.54,94.2H201.14
				z"/>
			<path class="st0" d="M278.24,95.73c-7.3,0-13.64-1.1-19.03-3.31c-5.39-2.21-9.44-5.22-12.16-9.04l10.57-9.8
				c2.55,2.8,5.54,4.99,8.97,6.56c3.44,1.57,7.36,2.36,11.77,2.36c3.73,0,6.66-0.57,8.78-1.72c2.12-1.15,3.18-2.91,3.18-5.28
				c0-1.87-0.72-3.16-2.16-3.88c-1.44-0.72-3.44-1.29-5.98-1.72l-10.57-1.66c-2.97-0.42-5.73-1.08-8.27-1.97s-4.75-2.1-6.62-3.63
				c-1.87-1.53-3.35-3.39-4.46-5.6c-1.1-2.21-1.65-4.88-1.65-8.02c0-6.87,2.63-12.26,7.89-16.17c5.26-3.9,12.64-5.86,22.15-5.86
				c6.45,0,11.94,0.87,16.49,2.61c4.54,1.74,8.17,4.22,10.88,7.45l-9.42,10.69c-1.95-2.12-4.46-3.9-7.51-5.35
				c-3.05-1.44-6.75-2.16-11.08-2.16c-7.3,0-10.95,2.21-10.95,6.62c0,1.95,0.72,3.29,2.16,4.01c1.44,0.72,3.44,1.29,5.98,1.72
				l10.44,1.65c2.97,0.43,5.73,1.08,8.27,1.97s4.77,2.1,6.68,3.63c1.91,1.53,3.42,3.4,4.52,5.6c1.1,2.21,1.66,4.88,1.66,8.02
				c0,6.87-2.65,12.31-7.96,16.29C295.53,93.73,288,95.73,278.24,95.73z"/>
		</g>
		<g>
			<path class="st1" d="M363.53,28.51h19.22l-30.93,76.25c-1.95,4.84-4.54,8.53-7.77,11.07c-3.23,2.55-7.64,3.82-13.24,3.82h-12.98
				v-14.77h15.79l4.07-11.07l-26.48-65.3h20.24L341,56.14l5.98,19.09H348l5.73-19.09L363.53,28.51z"/>
			<path class="st1" d="M387.79,94.2V28.51h18.84v11.97h0.76c0.76-1.87,1.7-3.61,2.8-5.22c1.1-1.61,2.44-3.03,4.01-4.26
				c1.57-1.23,3.39-2.21,5.47-2.93c2.08-0.72,4.43-1.08,7.06-1.08c3.14,0,6.03,0.53,8.66,1.59c2.63,1.06,4.88,2.65,6.75,4.77
				c1.87,2.12,3.33,4.71,4.39,7.76c1.06,3.06,1.59,6.58,1.59,10.57V94.2h-18.84V54.23c0-8.48-3.69-12.73-11.08-12.73
				c-1.44,0-2.86,0.19-4.26,0.57s-2.65,0.98-3.75,1.78c-1.1,0.81-1.97,1.8-2.61,2.99c-0.64,1.19-0.95,2.59-0.95,4.2V94.2H387.79z"/>
			<path class="st1" d="M490.17,95.73c-5.18,0-9.82-0.79-13.94-2.35c-4.12-1.57-7.6-3.84-10.44-6.81
				c-2.84-2.97-5.03-6.58-6.56-10.82c-1.53-4.24-2.29-9.04-2.29-14.38c0-5.35,0.76-10.14,2.29-14.38c1.53-4.24,3.71-7.85,6.56-10.82
				c2.84-2.97,6.32-5.24,10.44-6.81c4.12-1.57,8.72-2.35,13.81-2.35c7.21,0,13,1.46,17.38,4.39c4.37,2.93,7.7,6.81,9.99,11.65
				l-14.51,7.89c-1.19-2.55-2.74-4.67-4.65-6.36c-1.91-1.7-4.65-2.55-8.21-2.55c-4.33,0-7.66,1.25-9.99,3.75
				c-2.33,2.5-3.5,5.92-3.5,10.25V66.7c0,4.33,1.17,7.75,3.5,10.25c2.33,2.5,5.75,3.75,10.25,3.75c3.65,0,6.51-0.85,8.59-2.55
				c2.08-1.7,3.84-3.9,5.28-6.62l14.26,8.15c-2.38,4.84-5.84,8.72-10.38,11.65C503.52,94.26,497.55,95.73,490.17,95.73z"/>
		</g>
	</g>
	<g>
		<circle class="st2" cx="28.13" cy="28.46" r="26.92"/>
		<path class="st0" d="M39.87,30.87h-1.15V29.6c0-2.03-1.59-3.69-3.55-3.69h-5.84v-2.54h1.14c0.66,0,1.2-0.54,1.2-1.21v-4.96
			c0-0.67-0.54-1.21-1.2-1.21h-4.7c-0.66,0-1.2,0.54-1.2,1.21v4.96c0,0.67,0.54,1.21,1.2,1.21h1.14v2.54h-5.84
			c-1.96,0-3.55,1.65-3.55,3.69v1.27h-1.14c-0.66,0-1.2,0.54-1.2,1.21v4.96c0,0.67,0.54,1.21,1.2,1.21h4.7c0.66,0,1.2-0.54,1.2-1.21
			v-4.96c0-0.67-0.54-1.21-1.2-1.21h-1.14V29.6c0-0.7,0.51-1.27,1.14-1.27h5.84v2.54h-1.14c-0.66,0-1.2,0.54-1.2,1.21v4.96
			c0,0.67,0.54,1.21,1.2,1.21h4.7c0.66,0,1.2-0.54,1.2-1.21v-4.96c0-0.67-0.54-1.21-1.2-1.21h-1.14v-2.54h5.84
			c0.63,0,1.14,0.57,1.14,1.27v1.27h-1.14c-0.66,0-1.2,0.54-1.2,1.21v4.96c0,0.67,0.54,1.21,1.2,1.21h4.7c0.66,0,1.2-0.54,1.2-1.21
			v-4.96C41.07,31.41,40.53,30.87,39.87,30.87z"/>
	</g>
</g>
</svg>
